<?xml version="1.0" encoding="UTF-8"?>
<svg xmlns="http://www.w3.org/2000/svg" xmlns:xlink="http://www.w3.org/1999/xlink" viewBox="0 0 100 100" width="100px" height="100px">
<g id="surface56323142">
<path style="fill-rule:nonzero;fill:rgb(0%,0%,0%);fill-opacity:1;stroke-width:26;stroke-linecap:butt;stroke-linejoin:round;stroke:rgb(100%,92.156863%,80.392158%);stroke-opacity:1;stroke-miterlimit:10;" d="M 165.117337 85.999998 C 165.117337 129.621617 129.621617 165.117337 85.999998 165.117337 C 42.37838 165.117337 6.88266 129.621617 6.88266 85.999998 C 6.88266 42.37838 42.37838 6.88266 85.999998 6.88266 C 129.621617 6.88266 165.117337 42.37838 165.117337 85.999998 Z M 137.600616 96.321668 L 122.121977 96.321668 C 119.26129 96.321668 116.957276 94.017655 116.957276 91.156968 L 116.957276 80.843029 C 116.957276 74.201595 111.560628 68.797215 104.919194 68.797215 C 98.27776 68.797215 92.881112 74.201595 92.881112 80.843029 L 92.881112 108.359751 C 92.881112 111.212707 90.577099 113.51672 87.716411 113.51672 C 84.863455 113.51672 82.559442 111.212707 82.559442 108.359751 L 82.559442 63.640246 C 82.559442 56.998812 77.162794 51.602164 70.52136 51.602164 C 63.879926 51.602164 58.483277 56.998812 58.483277 63.640246 L 58.483277 91.156968 C 58.483277 94.017655 56.171532 96.321668 53.318577 96.321668 L 34.399381 96.321668 L 34.399381 103.202782 L 53.318577 103.202782 C 59.960011 103.202782 65.356659 97.798402 65.356659 91.156968 L 65.356659 63.640246 C 65.356659 60.78729 67.668404 58.483277 70.52136 58.483277 C 73.374315 58.483277 75.678329 60.78729 75.678329 63.640246 L 75.678329 108.359751 C 75.678329 115.001185 81.082709 120.397833 87.716411 120.397833 C 94.357845 120.397833 99.762225 115.001185 99.762225 108.359751 L 99.762225 80.843029 C 99.762225 77.982342 102.066238 75.678329 104.919194 75.678329 C 107.77215 75.678329 110.076163 77.982342 110.076163 80.843029 L 110.076163 91.156968 C 110.076163 97.798402 115.480543 103.202782 122.121977 103.202782 L 137.600616 103.202782 Z M 137.600616 96.321668 " transform="matrix(0.505233,0,0,0.505233,6.55,6.55)"/>
<path style=" stroke:none;fill-rule:nonzero;fill:rgb(0%,0%,0%);fill-opacity:1;" d="M 50 10.027344 C 27.960938 10.027344 10.027344 27.960938 10.027344 50 C 10.027344 72.039062 27.960938 89.972656 50 89.972656 C 72.039062 89.972656 89.972656 72.039062 89.972656 50 C 89.972656 27.960938 72.039062 10.027344 50 10.027344 Z M 76.070312 58.691406 L 68.25 58.691406 C 64.894531 58.691406 62.164062 55.960938 62.164062 52.605469 L 62.164062 47.394531 C 62.164062 45.949219 61 44.785156 59.558594 44.785156 C 58.117188 44.785156 56.953125 45.949219 56.953125 47.394531 L 56.953125 61.296875 C 56.953125 64.652344 54.222656 67.378906 50.867188 67.378906 C 47.515625 67.378906 44.785156 64.652344 44.785156 61.296875 L 44.785156 38.703125 C 44.785156 37.261719 43.621094 36.097656 42.179688 36.097656 C 40.738281 36.097656 39.570312 37.261719 39.570312 38.703125 L 39.570312 52.605469 C 39.570312 55.960938 36.84375 58.691406 33.488281 58.691406 L 23.929688 58.691406 L 23.929688 55.214844 L 33.488281 55.214844 C 34.929688 55.214844 36.097656 54.050781 36.097656 52.605469 L 36.097656 38.703125 C 36.097656 35.347656 38.824219 32.621094 42.179688 32.621094 C 45.535156 32.621094 48.261719 35.347656 48.261719 38.703125 L 48.261719 61.296875 C 48.261719 62.738281 49.425781 63.902344 50.867188 63.902344 C 52.3125 63.902344 53.476562 62.738281 53.476562 61.296875 L 53.476562 47.394531 C 53.476562 44.039062 56.203125 41.308594 59.558594 41.308594 C 62.914062 41.308594 65.640625 44.039062 65.640625 47.394531 L 65.640625 52.605469 C 65.640625 54.050781 66.804688 55.214844 68.25 55.214844 L 76.070312 55.214844 Z M 76.070312 58.691406 "/>
</g>
</svg>
